<svg width="73" height="73" viewBox="0 0 73 73" fill="none" xmlns="http://www.w3.org/2000/svg">
<path d="M49.0469 34.2188H41.0625L40.9342 21.6719C40.9342 19.7827 39.4015 18.25 37.5123 18.25H35.2311C33.4631 18.25 31.8092 19.7898 31.8092 21.6719L31.9375 34.2188H23.9531C22.5942 34.2188 21.3639 35.0252 20.8164 36.269C20.2746 37.5123 20.517 38.9666 21.4437 39.9646L34.0976 53.6521C34.7463 54.3508 35.6588 54.75 36.6141 54.75C37.7235 54.7054 38.5032 54.3401 39.1448 53.6316L51.5848 39.9441C52.4981 38.9417 52.7298 37.4932 52.1819 36.2542C51.634 35.0152 50.4014 34.2188 49.0469 34.2188ZM36.5 0C16.3395 0 0 16.3395 0 36.5C0 56.6605 16.3395 73 36.5 73C56.6605 73 73 56.6605 73 36.5C73 16.3395 56.6605 0 36.5 0ZM36.5 66.1562C20.1463 66.1562 6.84375 52.8523 6.84375 36.5C6.84375 20.1477 20.1463 6.84375 36.5 6.84375C52.8537 6.84375 66.1562 20.1477 66.1562 36.5C66.1562 52.8523 52.8537 66.1562 36.5 66.1562Z" fill="white"/>
</svg>
